<svg width="1056" height="608" viewBox="0 0 1056 608" fill="none" xmlns="http://www.w3.org/2000/svg">
<g clip-path="url(#clip0_4354_6085)">
<rect width="1056" height="608" fill="url(#paint0_linear_4354_6085)"/>
<path fill-rule="evenodd" clip-rule="evenodd" d="M275.331 332.054C260.733 332.054 253.99 342.702 253.99 352.992C253.99 363.278 260.361 373.566 275.331 373.566C280.764 373.566 286.565 371.368 290.692 367.505L297.049 373.566C291.064 379.26 283.378 382.021 275.329 382.021C254.361 382.021 245 367.871 245 352.992C245 338.111 254.733 323.423 275.329 323.423C283.004 323.423 290.497 326.182 296.493 332.054L290.316 337.936C286.191 333.884 280.764 332.054 275.331 332.054ZM302.298 380.73V324.155H311.651V372.274H341.98V380.73H302.298ZM377.384 382.021C357.339 382.021 347.785 367.682 347.785 352.799C347.785 335.543 360.142 323.23 377.384 323.23C397.218 323.23 406.943 337.377 406.943 352.799C406.943 368.05 397.381 382.021 377.384 382.021ZM377.547 331.505C364.269 331.505 356.967 340.677 356.967 352.99C357.148 362.91 363.142 373.74 377.384 373.74C391.785 373.74 397.769 363.823 397.769 352.99C397.769 342.515 391.596 331.684 377.547 331.505ZM436.882 381.826C423.974 381.46 413.116 373.374 413.116 357.392V324.332H422.315V357.392C422.315 367.682 428.463 373.2 436.88 373.566C446.075 374.108 452.81 368.237 452.81 357.392V324.332H461.977V357.392C461.979 374.108 450.736 382.387 436.882 381.826ZM492.506 380.732H470.599V324.155H492.506C512.177 324.155 521.147 337.934 521.318 351.892C521.706 366.216 512.531 380.732 492.506 380.732ZM492.506 332.784H479.765V372.096H492.506C506.523 372.096 512.531 361.991 512.34 351.892C512.177 342.338 506.16 332.784 492.506 332.784ZM588.736 380.913H580.484L572.809 360.885L566.63 341.968L560.262 361.078L552.784 380.915H544.751L523.755 324.334H534.059L548.683 367.871L563.646 324.334H569.626L584.806 367.871L599.215 324.334H609.515L588.736 380.913ZM659.489 380.913L653.889 368.969H622.62L617.187 380.913H607.463L633.281 324.332H643.394L669.234 380.913H659.489ZM638.321 333.707L626.19 360.712H650.511L638.321 333.707ZM694.696 357.587V380.732H685.524V357.587L663.256 324.525V324.155H674.279L690.01 349.131L706.465 324.155H717.546V324.525L694.696 357.587ZM745.247 330.582C737.545 330.582 731.953 333.707 731.953 339.213C731.953 344.729 738.326 346.203 745.966 347.295C757.767 348.958 769.21 352.067 769.21 364.744C769.21 377.426 757.405 382.192 745.247 382.192C734.197 382.192 725.772 378.892 720.534 369.339L727.462 364.742C731.565 371.536 738.688 374.106 745.411 374.106C752.337 374.106 760.039 371.907 760.039 364.742C760.039 358.681 753.28 356.483 745.247 355.377C733.832 353.911 722.979 350.963 722.979 338.845C722.979 327.089 734.748 322.685 745.247 322.685C753.471 322.685 761.896 324.696 766.774 332.237L759.487 336.832C756.658 332.975 751.232 330.582 745.247 330.582ZM655.265 411.055C655.265 419.304 661.985 426.028 670.23 426.028C678.544 426.028 685.195 419.304 685.195 411.055C685.195 402.806 678.475 396.082 670.23 396.082C661.985 396.082 655.265 402.806 655.265 411.055ZM660.53 410.986C660.53 405.648 664.895 401.281 670.23 401.281C675.634 401.281 679.93 405.648 679.93 410.986C679.93 416.323 675.565 420.69 670.23 420.69C664.895 420.69 660.53 416.323 660.53 410.986ZM572.264 397.052C572.818 396.498 573.58 396.151 574.481 396.151C575.382 396.151 576.144 396.429 576.837 397.052C577.391 397.607 577.737 398.37 577.737 399.271C577.737 400.172 577.46 400.934 576.837 401.558C576.213 402.113 575.451 402.459 574.55 402.459C573.65 402.459 572.888 402.182 572.264 401.558C571.71 400.934 571.363 400.172 571.363 399.271C571.363 398.37 571.64 397.676 572.264 397.052ZM553.211 396.428C557.437 396.428 561.04 397.468 563.95 399.478C565.543 400.588 566.79 402.113 567.622 404.054C568.523 405.995 568.938 408.282 568.938 410.847C568.938 413.412 568.453 415.769 567.622 417.71C566.79 419.651 565.543 421.245 563.95 422.354C561.04 424.434 557.437 425.543 553.211 425.543H544.065V396.428H553.211ZM552.31 401.419H549.47V420.69H552.379C555.636 420.69 558.199 419.997 560.139 418.749C562.356 417.294 563.465 414.659 563.465 410.847C563.465 407.173 562.356 404.608 560.139 403.291C558.13 402.043 555.497 401.419 552.31 401.419ZM576.975 405.094H571.848V425.612H576.975V405.094ZM594.781 406.764C593.273 405.415 591.564 404.608 589.654 404.608C586.813 404.608 584.457 405.579 582.656 407.52C580.785 409.461 579.885 411.887 579.885 414.868C579.885 417.779 580.785 420.205 582.587 422.216C584.388 424.156 586.813 425.127 589.654 425.127C591.663 425.127 593.326 424.572 594.711 423.463V423.949C594.711 425.682 594.227 426.999 593.326 427.9C592.425 428.801 591.178 429.286 589.654 429.286C587.298 429.286 585.774 428.385 583.973 425.889L580.439 429.286L580.508 429.425C581.27 430.465 582.448 431.504 583.973 432.544C585.497 433.515 587.437 434 589.723 434C592.772 434 595.266 433.029 597.067 431.227C598.868 429.355 599.838 426.86 599.838 423.81V405.094H594.781V406.764ZM589.931 420.413C591.386 420.413 592.564 419.928 593.464 418.888C594.365 417.848 594.85 416.531 594.85 414.868C594.85 413.135 594.365 411.818 593.464 410.778C592.564 409.738 591.386 409.253 589.931 409.253C588.476 409.253 587.298 409.738 586.397 410.778C585.497 411.818 585.081 413.204 585.081 414.868C585.081 416.531 585.497 417.848 586.397 418.888C587.298 419.928 588.476 420.413 589.931 420.413ZM608.568 405.094H603.441V425.612H608.568V405.094ZM603.857 397.052C604.411 396.498 605.173 396.151 606.074 396.151C606.905 396.151 607.667 396.429 608.429 397.052C608.984 397.607 609.33 398.37 609.33 399.271C609.33 400.172 609.053 400.934 608.429 401.558C607.806 402.113 607.044 402.459 606.143 402.459C605.242 402.459 604.48 402.182 603.857 401.558C603.302 400.934 602.956 400.172 602.956 399.271C602.956 398.37 603.233 397.676 603.857 397.052ZM619.585 399.548H614.527V405.094H611.617V409.807H614.596V418.334C614.596 420.968 615.151 422.909 616.19 424.018C617.229 425.127 619.1 425.682 621.733 425.682C622.564 425.682 623.395 425.682 624.227 425.612H624.435V420.898L622.633 420.968C621.386 420.968 620.555 420.76 620.208 420.344C619.793 419.928 619.585 419.027 619.585 417.64V409.807H624.365V405.094H619.585V399.548ZM647.298 396.498H652.425V425.612H647.298V396.498ZM703.002 418.265C702.101 419.304 701.131 420.205 700.438 420.691C699.745 421.176 698.845 421.384 697.736 421.384C696.212 421.384 694.965 420.829 693.995 419.72C693.025 418.611 692.471 417.155 692.471 415.422C692.471 413.689 692.956 412.234 693.926 411.125C694.896 410.015 696.143 409.461 697.667 409.461C699.33 409.461 701.062 410.501 702.586 412.234L705.981 408.976C703.764 406.064 700.923 404.747 697.528 404.747C694.688 404.747 692.263 405.787 690.254 407.797C688.244 409.808 687.274 412.372 687.274 415.422C687.274 418.472 688.314 421.037 690.254 423.048C692.263 425.058 694.688 426.098 697.528 426.098C701.27 426.098 704.249 424.503 706.327 421.523L703.002 418.265ZM721.361 405.509C722.608 406.064 723.578 406.896 724.34 407.936C725.033 408.975 725.587 410.085 725.864 411.263C726.211 412.441 726.418 413.759 726.418 415.076L726.349 416.947H712.7C712.839 418.264 713.324 419.304 714.155 420.067C715.056 420.898 716.234 421.314 717.689 421.314C718.659 421.314 719.559 421.176 720.321 420.76C720.876 420.483 721.361 420.136 721.846 419.651C722.261 419.304 722.746 418.819 723.023 418.472L726.418 421.73L726.28 421.869C724.132 424.642 721.291 426.028 717.827 426.028C714.779 426.028 712.285 425.058 710.414 423.117C708.543 421.176 707.573 418.611 707.573 415.492C707.573 412.441 708.405 409.877 710.137 407.797C711.938 405.648 714.224 404.608 717.134 404.608C718.728 404.608 720.114 404.886 721.361 405.509ZM714.363 410.362C713.74 410.986 713.324 411.818 713.047 412.788H720.945C720.876 411.818 720.529 410.986 719.906 410.362C719.282 409.669 718.312 409.322 717.065 409.322C715.957 409.322 715.056 409.669 714.363 410.362ZM744.018 406.619C742.424 405.302 740.277 404.608 737.574 404.608C735.842 404.608 734.249 404.955 732.794 405.717C731.477 406.411 730.161 407.52 729.33 408.975L729.399 409.045L732.725 412.234C734.11 410.085 735.565 409.322 737.574 409.322C738.683 409.322 739.514 409.599 740.207 410.154C740.9 410.708 741.247 411.471 741.247 412.372V413.343C739.999 412.927 738.683 412.788 737.436 412.788C734.872 412.788 732.794 413.412 731.2 414.59C729.607 415.769 728.845 417.502 728.845 419.72C728.845 421.661 729.538 423.186 730.854 424.364C732.17 425.474 733.833 426.028 735.842 426.028C737.782 426.028 739.653 425.266 741.316 423.879V425.543H746.373V412.372C746.373 409.877 745.611 407.936 744.018 406.619ZM734.872 417.71C735.427 417.294 736.258 417.086 737.297 417.086C738.544 417.086 739.861 417.363 741.177 417.848V419.859C740.069 420.898 738.544 421.453 736.743 421.453C735.842 421.453 735.15 421.245 734.665 420.829C734.18 420.413 733.972 419.928 733.972 419.304C734.041 418.68 734.318 418.126 734.872 417.71ZM759.538 404.608C762.102 404.608 764.111 405.44 765.566 407.035C766.952 408.629 767.714 410.847 767.645 413.689V425.543H762.518V413.689C762.518 412.303 762.171 411.194 761.548 410.431C760.924 409.599 760.023 409.253 758.846 409.253C757.529 409.253 756.49 409.669 755.797 410.57C755.035 411.471 754.689 412.719 754.689 414.244V425.612H749.562V405.094H754.619V406.341C755.866 405.163 757.529 404.608 759.538 404.608ZM641.685 406.619C640.091 405.302 637.944 404.608 635.241 404.608C633.509 404.608 631.916 404.955 630.461 405.717C629.145 406.411 627.828 407.52 626.997 408.975L627.066 409.045L630.392 412.234C631.777 410.085 633.232 409.322 635.241 409.322C636.35 409.322 637.181 409.599 637.874 410.154C638.567 410.708 638.914 411.471 638.914 412.372V413.343C637.666 412.927 636.35 412.788 635.103 412.788C632.539 412.788 630.461 413.412 628.867 414.59C627.274 415.769 626.512 417.502 626.512 419.72C626.512 421.661 627.205 423.186 628.521 424.364C629.837 425.474 631.5 426.028 633.509 426.028C635.449 426.028 637.32 425.266 638.983 423.879V425.543H644.04V412.372C644.04 409.877 643.278 407.936 641.685 406.619ZM632.539 417.71C633.094 417.294 633.925 417.086 634.964 417.086C636.211 417.086 637.528 417.363 638.844 417.848V419.859C637.736 420.898 636.211 421.453 634.41 421.453C633.509 421.453 632.817 421.245 632.332 420.829C631.847 420.413 631.639 419.928 631.639 419.304C631.708 418.68 631.985 418.126 632.539 417.71ZM511.347 419.096C510.419 419.096 509.678 418.803 509.123 418.216V418.92H507.331V407.704H509.155V411.656C509.752 411.144 510.483 410.888 511.347 410.888C512.467 410.888 513.384 411.277 514.099 412.056C514.814 412.835 515.171 413.816 515.171 415C515.171 416.184 514.814 417.165 514.099 417.944C513.374 418.712 512.456 419.096 511.347 419.096ZM509.683 416.792C510.056 417.261 510.568 417.496 511.219 417.496C511.87 417.496 512.382 417.261 512.755 416.792C513.128 416.323 513.315 415.725 513.315 415C513.315 414.275 513.128 413.677 512.755 413.208C512.382 412.739 511.87 412.504 511.219 412.504C510.568 412.504 510.056 412.739 509.683 413.208C509.31 413.677 509.123 414.275 509.123 415C509.123 415.725 509.31 416.323 509.683 416.792ZM524.175 411.08L519.791 422.024H517.871L519.087 419.016L515.983 411.08H518.063L520.111 416.744L522.191 411.08H524.175Z" fill="#2E39BF"/>
<path fill-rule="evenodd" clip-rule="evenodd" d="M473.49 268.717C473.846 269.092 474.221 269.486 474.618 269.91C473.781 269.91 473.284 269.91 472.789 269.908H417.715C417.611 269.908 417.507 269.907 417.402 269.906C417.156 269.904 416.91 269.903 416.665 269.911C413.411 270.025 410.611 272.372 410.04 275.459C409.432 278.747 411.03 281.936 414.089 283.156C415.172 283.588 416.43 283.751 417.608 283.753C456.968 283.783 496.33 283.802 535.691 283.768C555.594 283.75 575.497 283.645 595.399 283.536C599.806 283.512 604.133 282.799 608.366 281.549C635.35 273.578 651.21 244.968 643.133 217.082C638.114 199.755 626.785 188.083 609.728 182.104C608.958 181.833 608.631 181.48 608.478 180.677C608.188 179.154 607.781 177.648 607.342 176.16C599.641 150.041 575.143 132.036 547.779 133.83C538.371 134.447 529.652 137.157 521.596 142.027C520.729 142.551 519.88 142.785 518.867 142.784C487.44 142.764 456.013 142.766 424.587 142.77C421.216 142.77 418.579 144.788 417.715 147.985C416.922 150.918 418.208 154.241 420.999 155.627C422.295 156.271 423.895 156.568 425.359 156.571C445.742 156.614 466.124 156.613 486.507 156.613C492.144 156.613 497.782 156.613 503.419 156.614C503.756 156.614 504.093 156.633 504.488 156.655C504.701 156.667 504.931 156.68 505.187 156.692C505.033 156.912 504.897 157.108 504.772 157.289C504.533 157.633 504.334 157.919 504.132 158.203C500.812 162.852 498.161 167.855 496.34 173.273C495.987 174.321 495.477 174.578 494.427 174.576C479.614 174.548 464.801 174.55 449.988 174.551C446.871 174.551 443.753 174.551 440.636 174.551C438.023 174.551 435.41 174.551 432.797 174.551C425.609 174.549 418.42 174.548 411.232 174.556C408.048 174.559 405.229 176.796 404.507 179.845C403.776 182.929 405.216 186.257 408.12 187.576C409.345 188.132 410.815 188.372 412.173 188.375C430.277 188.414 448.381 188.412 466.484 188.41C470.628 188.409 474.772 188.409 478.916 188.409H480.337C480.074 188.928 479.783 189.171 479.48 189.394C473.694 193.646 468.983 198.874 465.394 205.093C464.862 206.014 464.295 206.358 463.217 206.358C438.316 206.33 413.417 206.331 388.517 206.332C384.207 206.332 379.897 206.332 375.587 206.332C375.465 206.332 375.343 206.331 375.221 206.33C374.915 206.328 374.61 206.326 374.304 206.337C370.093 206.498 366.964 210.417 367.767 214.519C368.447 217.993 371.23 220.188 374.985 220.188C395.667 220.19 416.349 220.19 437.032 220.189C443.926 220.189 450.82 220.189 457.714 220.189H459.459C458.145 226.265 458.046 232.222 458.608 238.342C457.852 238.342 457.11 238.342 456.379 238.342C454.798 238.341 453.264 238.34 451.729 238.343C449.043 238.347 447.606 239.691 447.518 242.379C447.459 244.207 447.461 246.04 447.516 247.87C447.597 250.601 449.051 251.974 451.798 251.983C452.276 251.984 452.755 251.986 453.234 251.988C455.867 252 458.501 252.011 461.132 251.964C462.008 251.948 462.433 252.237 462.778 253.032C464.934 257.998 467.852 262.484 471.449 266.524C472.089 267.242 472.752 267.94 473.49 268.717ZM394.231 251.987C396.493 251.986 398.755 251.986 401.016 251.986H401.097C403.752 251.986 406.406 251.986 409.06 251.987C410.591 251.987 412.122 251.988 413.653 251.988C417.563 251.99 421.473 251.991 425.383 251.983C427.728 251.979 429.448 250.534 429.51 248.44C429.573 246.341 429.571 244.236 429.508 242.136C429.441 239.914 427.891 238.355 425.734 238.354C409.296 238.338 392.857 238.339 376.419 238.352C374.265 238.354 372.747 239.848 372.682 241.998C372.635 243.544 372.644 245.091 372.653 246.638C372.654 246.92 372.656 247.203 372.657 247.485C372.671 250.656 374.026 251.984 377.232 251.986C382.899 251.987 388.565 251.987 394.231 251.987Z" fill="#2E39BF"/>
<path d="M1207.73 516.728C780.533 405.946 433.602 808.505 -49.2432 225.35L-49.2429 650.092L1197 635L1207.73 516.728Z" fill="url(#paint1_linear_4354_6085)"/>
<path d="M2.26465 -12.4736C17.6374 -12.5981 33.7866 -12.6003 50.6078 -12.4736L1099.5 -12.4736L1099.5 206.69C1099.5 206.69 993.271 139.653 926.745 109.925C730.337 22.1566 310.347 -10.5182 50.6078 -12.4736L2.26465 -12.4736Z" fill="url(#paint2_linear_4354_6085)"/>
</g>
<defs>
<linearGradient id="paint0_linear_4354_6085" x1="3.92361e-06" y1="622.5" x2="732" y2="-25.5" gradientUnits="userSpaceOnUse">
<stop stop-color="#FDF9FD"/>
<stop offset="0.537253" stop-color="#FFFEFF"/>
<stop offset="1" stop-color="#F8F5FE"/>
</linearGradient>
<linearGradient id="paint1_linear_4354_6085" x1="-146.987" y1="410.57" x2="1224.4" y2="658.538" gradientUnits="userSpaceOnUse">
<stop offset="0.0735741" stop-color="#FAF1FB" stop-opacity="0.2"/>
<stop offset="0.715197" stop-color="#F9E9F9"/>
<stop offset="0.979591" stop-color="#F3ECFE"/>
</linearGradient>
<linearGradient id="paint2_linear_4354_6085" x1="-314.516" y1="788.356" x2="1398.68" y2="692.603" gradientUnits="userSpaceOnUse">
<stop offset="0.0735741" stop-color="#F2EBFD"/>
<stop offset="1" stop-color="#F3ECFE"/>
</linearGradient>
<clipPath id="clip0_4354_6085">
<rect width="1056" height="608" fill="white"/>
</clipPath>
</defs>
</svg>
